PathFileType	4	(X/Y/Z)	/Users/itak/Documents/Research/Walk-IL/dataset/trc/00579_00009.trc
DataRate	CameraRate	NumFrames	NumMarkers	Units	OrigDataRate	OrigDataStartFrame	OrigNumFrames
100.000000	100.000000	4	55	mm	100.000000	318	510
Frame#	Time	RPSI			LPSI			L3			STRN			T10			C7			CLAV			RBAK			LBAK			LSHO			LUPA			LAEL			LAOL			LWTS			LWPS			LFRA			LHTS			RSHO			RUPA			RAEL			RAOL			RWTS			RWPS			RFRA			RIFD			RHTS			RHPS			RBHD			LFHD			RFHD			LBHD			LHIP			RHIP			RASI			LASI			LKNE			LTHI			LANK			LTIP			LTOE			LMT1			LMT5			LHEE			RKNE			RTHI			RANK			RTIP			RTOE			RMT1			RMT5			RHEE			LHPS			LIFD			*53			*54			
		X1	Y1	Z1	X2	Y2	Z2	X3	Y3	Z3	X4	Y4	Z4	X5	Y5	Z5	X6	Y6	Z6	X7	Y7	Z7	X8	Y8	Z8	X9	Y9	Z9	X10	Y10	Z10	X11	Y11	Z11	X12	Y12	Z12	X13	Y13	Z13	X14	Y14	Z14	X15	Y15	Z15	X16	Y16	Z16	X17	Y17	Z17	X18	Y18	Z18	X19	Y19	Z19	X20	Y20	Z20	X21	Y21	Z21	X22	Y22	Z22	X23	Y23	Z23	X24	Y24	Z24	X25	Y25	Z25	X26	Y26	Z26	X27	Y27	Z27	X28	Y28	Z28	X29	Y29	Z29	X30	Y30	Z30	X31	Y31	Z31	X32	Y32	Z32	X33	Y33	Z33	X34	Y34	Z34	X35	Y35	Z35	X36	Y36	Z36	X37	Y37	Z37	X38	Y38	Z38	X39	Y39	Z39	X40	Y40	Z40	X41	Y41	Z41	X42	Y42	Z42	X43	Y43	Z43	X44	Y44	Z44	X45	Y45	Z45	X46	Y46	Z46	X47	Y47	Z47	X48	Y48	Z48	X49	Y49	Z49	X50	Y50	Z50	X51	Y51	Z51	X52	Y52	Z52	X53	Y53	Z53	X54	Y54	Z54	X55	Y55	Z55	

319	3.18	280.3197631835938	994.3325805664062	187.9246368408203	204.2882995605469	997.854248046875	78.37678527832031	246.5492706298828	1096.569091796875	124.7804107666016	428.8060607910156	1279.913452148438	-27.20443153381348	239.5106201171875	1222.1943359375	126.1251678466797	288.070068359375	1495.9970703125	98.34830474853516	413.849853515625	1391.445068359375	-18.70571708679199	286.2474060058594	1373.83154296875	212.1901092529297	202.8760223388672	1442.71923828125	51.57546615600586	222.4998931884766	1463.996948242188	-75.0736083984375	162.1436157226562	1335.461181640625	-123.4028396606445	161.9967651367188	1115.428344726562	-149.0252380371094	137.2036743164062	1106.190063476562	-51.13962554931641	273.9609069824219	880.9644775390625	-183.6862945556641	193.0771331787109	853.52880859375	-202.7714385986328	177.3248596191406	1030.498901367188	-170.5802917480469	275.9565734863281	803.7867431640625	-210.2439727783203	430.7342224121094	1458.527709960938	181.1867828369141	459.795166015625	1394.880859375	245.5325622558594	493.6188354492188	1107.44873046875	287.400634765625	434.3635559082031	1088.673706054688	303.9108581542969	578.8904418945312	891.0209350585938	169.754638671875	587.6600952148438	871.133056640625	248.729248046875	508.2935485839844	1052.68115234375	287.0371704101562	576.4338989257812	727.0957641601562	164.6375579833984	613.6931762695312	800.3228759765625	163.6283264160156	601.950927734375	797.6047973632812	236.9065704345703	410.4805603027344	1674.590698242188	90.02275848388672	402.9798889160156	1691.372680664062	-116.7609558105469	503.1856994628906	1692.044189453125	-13.88508987426758	299.0349426269531	1671.851928710938	-35.37739562988281	241.2519378662109	919.47998046875	-100.8890533447266	453.2375793457031	927	214.337646484375	492.1348266601562	962.3062744140625	120.5391540527344	332.3631286621094	949.8637084960938	-103.355339050293	391.1360778808594	491.0435180664062	-67.40148162841797	332.6466674804688	649.023681640625	-96.18092346191406	365.2215576171875	36.7265625	53.70822906494141	364.4663696289062	242.8922729492188	3.040267944335938	558.5789184570312	41.18019866943359	-52.96657943725586	529.6196899414062	44.25272750854492	23.65060043334961	443.9770202636719	39.98242950439453	-39.91842269897461	355.8954467773438	36.76116561889648	140.1076965332031	518.4213256835938	491.8894958496094	169.9126586914062	501.9996948242188	780.3121948242188	187.6709594726562	190.3170776367188	204.7751922607422	372.5851135253906	443.5108642578125	374.2085571289062	212.0353698730469	312.531982421875	51.42934036254883	276.8998718261719	252.8276062011719	93.98013305664062	255.5447998046875	274.5982666015625	107.0687255859375	356.5318908691406	127.2684326171875	237.2144317626953	342.2105712890625	208.3954620361328	794.3145751953125	-203.5525054931641	279.4259033203125	713.5299682617188	-178.1992340087891	nan	nan	nan	nan	nan	nan	
320	3.19	287.0176086425781	994.8590698242188	184.9632110595703	209.8835296630859	998.4288940429688	76.14037322998047	252.3844909667969	1097.168823242188	122.0639495849609	433.4933166503906	1280.634155273438	-31.58861351013184	245.5099945068359	1222.848999023438	123.3676300048828	293.9605102539062	1496.613403320312	95.3121337890625	418.7461242675781	1392.143798828125	-22.80729675292969	293.0194396972656	1374.381713867188	209.013671875	208.3711395263672	1443.446411132812	49.10596466064453	227.12939453125	1464.973754882812	-77.65473937988281	166.4958190917969	1336.597534179688	-126.0067443847656	166.9101104736328	1116.694580078125	-152.5823669433594	142.4350891113281	1106.783203125	-54.63527297973633	280.6442565917969	883.5509643554688	-189.2995910644531	199.9596862792969	855.4742431640625	-208.2411346435547	182.7624969482422	1032.055297851562	-174.7120819091797	283.3487548828125	806.6767578125	-216.60205078125	437.2206726074219	1459.067016601562	177.0004272460938	466.8116149902344	1395.381958007812	241.0589752197266	501.2057800292969	1107.90185546875	282.2284240722656	442.0600891113281	1088.989990234375	299.0453796386719	586.4346923828125	891.8854370117188	163.8503875732422	595.484375	871.8781127929688	242.8155975341797	515.990478515625	1053.189208984375	281.733642578125	584.3678588867188	728.0240478515625	158.5901336669922	621.4055786132812	801.2485961914062	157.6030578613281	609.9935913085938	798.4330444335938	230.8233795166016	416.23046875	1675.20947265625	86.18701934814453	407.7403259277344	1692.07958984375	-120.3705749511719	508.4414367675781	1692.583129882812	-18.01780700683594	304.1794128417969	1672.467529296875	-38.37016296386719	244.4414215087891	919.7454223632812	-103.3679733276367	460.6164855957031	928.0355834960938	209.1390991210938	497.9641418457031	963.5259399414062	114.7414169311523	335.51416015625	950.2634887695312	-107.1639633178711	392.3470764160156	490.6341247558594	-68.38889312744141	334.7754211425781	648.8660888671875	-97.80410003662109	365.2357177734375	36.79833221435547	53.74470138549805	365.1219787597656	242.8708801269531	2.69063401222229	558.6268920898438	41.12767028808594	-52.90387344360352	529.639892578125	44.16221618652344	23.6374568939209	443.9862976074219	40.01695251464844	-39.9011344909668	355.9731140136719	36.78963851928711	140.1790924072266	530.72509765625	494.1604614257812	159.8997192382812	510.7395935058594	781.9354858398438	181.0883941650391	213.5579223632812	199.2176208496094	367.6223449707031	459.0213928222656	375.2401733398438	202.9362945556641	339.247802734375	50.97450256347656	268.6446838378906	277.8883361816406	91.28946685791016	248.7100219726562	301.3913879394531	105.2746963500977	349.2425231933594	148.6942443847656	229.2041931152344	338.57861328125	215.9177703857422	796.4776611328125	-209.6735076904297	287.7867431640625	716.1229858398438	-185.2935943603516	nan	nan	nan	nan	nan	nan	
321	3.2	293.7040710449219	995.37060546875	182.0039367675781	215.4408416748047	998.98974609375	73.95692443847656	258.164794921875	1097.728149414062	119.4023056030273	438.0888366699219	1281.311279296875	-36.0008544921875	251.4656677246094	1223.453369140625	120.6064682006836	299.8006591796875	1497.186889648438	92.29588317871094	423.5613403320312	1392.806640625	-26.93301391601562	299.7684326171875	1374.876098632812	205.8425445556641	213.8178558349609	1444.128662109375	46.68581390380859	231.6593475341797	1465.921875	-80.17729949951172	170.7304534912109	1337.705688476562	-128.5355987548828	171.7149505615234	1117.934692382812	-156.0942535400391	147.5908355712891	1107.330688476562	-58.09186935424805	287.2837524414062	886.161865234375	-194.8943023681641	206.8240203857422	857.4461059570312	-213.742431640625	188.1289672851562	1033.609741210938	-178.8306274414062	290.6649475097656	809.5541381835938	-222.8682403564453	443.67529296875	1459.538330078125	172.7916259765625	473.7969360351562	1395.819458007812	236.5407867431641	508.6976928710938	1108.309448242188	277.1497497558594	449.6737670898438	1089.2744140625	294.2684020996094	593.8653564453125	892.7442016601562	157.9190216064453	603.2265625	872.5867309570312	236.8618011474609	523.6182861328125	1053.651123046875	276.4736328125	592.2578125	728.9633178710938	152.404296875	629.050537109375	802.1968383789062	151.4766235351562	617.9717407226562	799.2374877929688	224.6509094238281	421.94189453125	1675.765747070312	82.43414306640625	412.4378662109375	1692.759155273438	-123.9537658691406	513.6484985351562	1693.073608398438	-22.11311912536621	309.2555541992188	1673.06787109375	-41.32993698120117	247.5356903076172	919.9918212890625	-105.7871932983398	467.9134521484375	929.021484375	203.9278106689453	503.7132263183594	964.6864013671875	108.9118347167969	338.5707397460938	950.6259155273438	-110.9346389770508	393.3878784179688	490.219482421875	-69.32981872558594	336.7132873535156	648.68408203125	-99.35181427001953	365.244140625	36.89650726318359	53.79362487792969	365.6990356445312	242.836669921875	2.366109132766724	558.6680297851562	41.07442092895508	-52.86286926269531	529.6580200195312	44.06840133666992	23.62719345092773	443.9920654296875	40.04732513427734	-39.88356018066406	356.0476379394531	36.83793258666992	140.2624053955078	542.473388671875	496.4393310546875	149.7844390869141	519.2943115234375	783.5167236328125	174.4748992919922	237.3922882080078	192.7852783203125	362.0213928222656	474.269775390625	376.1174011230469	193.5944976806641	366.5960388183594	50.3588981628418	259.24169921875	303.5387268066406	88.1749267578125	240.9220123291016	328.77783203125	102.9947814941406	340.9366455078125	170.6916961669922	220.094970703125	334.4376831054688	223.3716735839844	798.6528930664062	-215.7622985839844	295.9988708496094	718.7385864257812	-192.2308959960938	nan	nan	nan	nan	nan	nan	
322	3.21	300.3786010742188	995.8594360351562	179.0462341308594	220.9587707519531	999.5360717773438	71.82150268554688	263.9067993164062	1098.249633789062	116.7796249389648	442.6044006347656	1281.9345703125	-40.43965148925781	257.3834533691406	1224.004516601562	117.8374862670898	305.5986633300781	1497.711669921875	89.28788757324219	428.3033752441406	1393.423095703125	-31.08230781555176	306.49169921875	1375.307495117188	202.6691131591797	219.2215118408203	1444.762939453125	44.30397796630859	236.1016998291016	1466.828491210938	-82.65528106689453	174.857177734375	1338.7724609375	-130.9977111816406	176.4027252197266	1119.131469726562	-159.5576629638672	152.6657867431641	1107.828369140625	-61.5075569152832	293.8475646972656	888.7786865234375	-200.4592590332031	213.6367034912109	859.4204711914062	-219.241943359375	193.4091949462891	1035.142578125	-182.9279327392578	297.8810119628906	812.4163208007812	-229.0464477539062	450.0978698730469	1459.932250976562	168.5585174560547	480.7509765625	1396.183837890625	231.9802093505859	516.1025390625	1108.6630859375	272.1613464355469	457.2357788085938	1089.516235351562	289.5697021484375	601.1710205078125	893.5791015625	151.9578399658203	610.8875122070312	873.2457885742188	230.8602447509766	531.1800537109375	1054.057373046875	271.2521362304688	600.0744018554688	729.8903198242188	146.0869903564453	636.6106567382812	803.1510009765625	145.2385406494141	625.8755493164062	800.0032348632812	218.3888397216797	427.6040649414062	1676.250366210938	78.74598693847656	417.0645141601562	1693.410278320312	-127.5114440917969	518.8069458007812	1693.525268554688	-26.17869758605957	314.2605895996094	1673.654541015625	-44.27704238891602	250.55859375	920.219970703125	-108.1534729003906	475.1405944824219	929.9500732421875	198.6882934570312	509.3963928222656	965.7758178710938	103.0610198974609	341.5555725097656	950.9437866210938	-114.661247253418	394.2834167480469	489.8014831542969	-70.23809814453125	338.4849243164062	648.4791259765625	-100.8301696777344	365.2476806640625	37.02621841430664	53.8642692565918	366.2072143554688	242.7918853759766	2.065156936645508	558.701904296875	41.0196418762207	-52.84230422973633	529.6748657226562	43.97255325317383	23.62112236022949	443.9949340820312	40.07357406616211	-39.86545944213867	356.1206359863281	36.89989471435547	140.3618621826172	553.67041015625	498.6891174316406	139.5762786865234	527.6790771484375	785.0476684570312	167.8144226074219	261.7157287597656	185.6007537841797	355.6654357910156	489.2351379394531	376.8274230957031	183.9897918701172	394.4519958496094	49.71100616455078	248.6828002929688	329.6360778808594	84.73037719726562	232.1664733886719	356.6002197265625	100.3396682739258	331.5997314453125	193.2199554443359	210.0477447509766	329.6704711914062	230.7326965332031	800.8182373046875	-221.7941741943359	304.0802612304688	721.3670654296875	-199.0365295410156	nan	nan	nan	nan	nan	nan	
